<svg width="48" height="48" viewBox="0 0 48 48" fill="none" xmlns="http://www.w3.org/2000/svg">
<g clip-path="url(#clip0)">
<path d="M27 43.5938C27.5178 43.5938 27.9375 43.1741 27.9375 42.6563C27.9375 42.1386 27.5178 41.7188 27 41.7188C26.4822 41.7188 26.0625 42.1386 26.0625 42.6563C26.0625 43.1741 26.4822 43.5938 27 43.5938Z" fill="#FEFEFE"/>
<path d="M16.9688 48C19.4758 48 21.9634 47.3428 24.1626 46.0994C24.6133 45.8446 24.772 45.2726 24.5172 44.8219C24.2623 44.371 23.6902 44.2125 23.2397 44.4672C21.3216 45.5517 19.1531 46.125 16.9688 46.125C9.85425 46.125 3.84375 39.9857 3.84375 32.7188C3.84375 29.5031 5.00419 25.9519 7.02759 22.9755C10.64 17.6612 13.9794 11.134 16.9696 3.54769C18.9154 8.46769 21.7341 14.7481 25.3248 20.5323C18.6419 20.5763 13.2188 26.0258 13.2188 32.7188C13.2188 33.2365 13.6386 33.6562 14.1562 33.6562C14.6739 33.6562 15.0938 33.2365 15.0938 32.7188C15.0938 27.0324 19.7199 22.4062 25.4062 22.4062C25.7672 22.4062 26.1278 22.3832 26.4848 22.3421C27.8263 24.3632 28.8974 26.1167 29.6084 28.9688H28.2188C24.6001 28.9688 21.6562 31.9127 21.6562 35.5312C21.6562 36.049 22.0761 36.4688 22.5938 36.4688C23.1114 36.4688 23.5312 36.049 23.5312 35.5312C23.5312 32.9466 25.6341 30.8438 28.2188 30.8438H29.9676C30.0509 31.4778 30.0938 32.1058 30.0938 32.7188C30.0938 34.8193 29.5875 36.9256 28.6296 38.8098C28.3949 39.2713 28.5788 39.8357 29.0405 40.0703C29.5019 40.3051 30.0664 40.1212 30.3009 39.6595C31.3921 37.5133 31.9688 35.1132 31.9688 32.7188C31.9688 32.0942 31.9298 31.4571 31.8538 30.8153C38.1919 30.3908 43.2188 25.1 43.2188 18.6562V18.1071L44.4308 19.3192C44.797 19.6852 45.3905 19.6852 45.7567 19.3192C46.1228 18.9531 46.1228 18.3594 45.7567 17.9932L42.9442 15.1807C42.5781 14.8147 41.9846 14.8147 41.6183 15.1807L38.8058 17.9932C38.4397 18.3593 38.4397 18.953 38.8058 19.3192C39.172 19.6852 39.7655 19.6852 40.1317 19.3192L41.3438 18.1071V18.6562C41.3438 24.1747 36.9866 28.6943 31.532 28.9564C30.9797 26.4959 29.9267 24.0778 28.4591 21.9191C28.4549 21.9128 28.4509 21.9069 28.4467 21.9007C32.1868 20.6246 34.7812 17.0896 34.7812 13.0312V6.85706L35.9933 8.06916C36.3595 8.43525 36.953 8.43525 37.3192 8.06916C37.6853 7.70306 37.6853 7.10944 37.3192 6.74325L34.5067 3.93075C34.1406 3.56466 33.5471 3.56466 33.1808 3.93075L30.3683 6.74325C30.0022 7.10934 30.0022 7.70297 30.3683 8.06916C30.7345 8.43525 31.328 8.43525 31.6942 8.06916L32.9062 6.85706V13.0312C32.9062 16.444 30.6143 19.3946 27.3743 20.2695C23.0616 13.5028 19.829 5.89378 17.8567 0.634687C17.8493 0.625313 17.6548 0.00365625 16.9737 0C16.972 0 16.9704 0 16.9687 0C16.5839 0 16.238 0.235219 16.0966 0.593531C15.5963 1.74966 11.8732 12.5116 5.47697 21.9214C3.2475 25.201 1.96875 29.1365 1.96875 32.7188C1.96875 41.021 8.68556 48 16.9688 48Z" fill="#FEFEFE"/>
</g>
<defs>
<clipPath id="clip0">
<rect width="48" height="48" fill="white"/>
</clipPath>
</defs>
</svg>
