<svg width="51" height="51" viewBox="0 0 51 51" fill="none" xmlns="http://www.w3.org/2000/svg">
<g clip-path="url(#clip0)">
<path d="M41.5972 15.7667H38.1489C38.769 13.7578 38.869 11.5242 38.3618 9.37762H42.7387C44.2758 9.37762 45.5219 8.13221 45.5219 6.59454C45.5219 5.06175 44.2766 3.81434 42.7445 3.81135C42.0161 1.57034 39.9002 0.000298828 37.4982 0.000298828C35.8392 0.000298828 34.266 0.762311 33.2271 2.02994C31.2754 0.727348 28.9934 0.0185273 26.6045 0.000298828C26.5733 9.96094e-05 26.5425 0 26.5114 0C23.4145 0 20.4671 1.16085 18.2037 3.27446C17.9022 3.55605 17.886 4.0288 18.1677 4.33042C18.4492 4.63184 18.9219 4.64827 19.2236 4.36648C21.209 2.51235 23.7944 1.49414 26.5116 1.49414C29.3066 1.49414 32.0344 2.57909 34.1151 4.69439C37.3811 8.01487 38.0921 12.9438 36.0519 16.9844C35.8659 17.3526 36.0137 17.8021 36.382 17.988C36.7503 18.1741 37.1997 18.0262 37.3856 17.6579C37.4517 17.5271 37.5151 17.3943 37.5765 17.2608H41.5972C42.2468 17.2608 42.8573 17.5135 43.3161 17.9724C43.793 18.4492 44.0454 19.0842 44.0269 19.7599C43.9902 21.0618 42.8775 22.121 41.5464 22.121H36.2C34.8434 17.4936 30.5604 14.1044 25.5 14.1044C20.4396 14.1044 16.1566 17.4936 14.8 22.121H11.6116C9.05369 22.121 6.97266 20.0395 6.97266 17.481C6.97266 14.9232 9.05369 12.8422 11.6116 12.8422H14.6975C15.3141 12.8422 15.8153 12.3596 15.8384 11.7448C15.9049 10.0523 16.3564 8.44638 17.1804 6.97206C17.3817 6.61187 17.2529 6.15666 16.8928 5.95545C16.5324 5.75403 16.0774 5.88283 15.8761 6.24312C15.0046 7.8027 14.4845 9.56021 14.3635 11.3481H11.6116C8.22973 11.3481 5.47852 14.0994 5.47852 17.481C5.47852 20.8634 8.22983 23.6151 11.6116 23.6151H14.472C14.393 24.1498 14.3515 24.6966 14.3515 25.2529C14.3515 31.3998 19.3539 36.4014 25.5001 36.4014C29.3369 36.4014 32.8572 34.4655 34.9171 31.223C35.1383 30.8747 35.0353 30.413 34.687 30.1917C34.3388 29.9707 33.877 30.0735 33.6557 30.4218C33.2521 31.0572 32.7831 31.6341 32.2615 32.1474L31.0913 30.7532C32.357 29.4678 33.1377 27.7931 33.3084 25.9999H35.1251C35.0887 26.475 35.0183 26.9459 34.9133 27.4071C34.8216 27.8094 35.0735 28.2099 35.4758 28.3015C35.8778 28.3932 36.2785 28.1413 36.3702 27.739C36.6738 26.4061 36.733 25.0018 36.5281 23.6152H41.5465C43.6785 23.6152 45.4612 21.9047 45.5206 19.8015C45.5504 18.7106 45.1427 17.6858 44.3727 16.916C43.6316 16.1748 42.6459 15.7667 41.5972 15.7667ZM34.4187 2.93529C35.1765 2.03502 36.3065 1.49444 37.4981 1.49444C39.4014 1.49444 41.0583 2.84584 41.4378 4.70764C41.5087 5.05557 41.8147 5.30549 42.1698 5.30549H42.7386C43.4494 5.30549 44.0276 5.88373 44.0276 6.59454C44.0276 7.30575 43.4502 7.88348 42.7386 7.88348H37.9048C37.3121 6.31952 36.3927 4.87917 35.1802 3.6466C34.9351 3.39728 34.6807 3.16061 34.4187 2.93529ZM15.8456 25.2528C15.8456 19.9294 20.1765 15.5984 25.5 15.5984C30.5721 15.5984 34.7432 19.5299 35.1258 24.5056H33.308C32.9305 20.5295 29.5734 17.4085 25.5001 17.4085C21.1747 17.4085 17.6558 20.9274 17.6558 25.2528C17.6558 27.3243 18.4687 29.2907 19.9086 30.7531L18.7435 32.1415C16.9561 30.3883 15.8456 27.948 15.8456 25.2528ZM29.581 30.1163C29.2651 30.3816 29.2241 30.8527 29.4893 31.1686L31.1183 33.1096C29.5067 34.2645 27.5559 34.9072 25.4999 34.9072C23.408 34.9072 21.4696 34.2381 19.8867 33.1032L21.5102 31.1687C21.7753 30.8527 21.7344 30.3817 21.4185 30.1164C19.9766 28.9049 19.1496 27.1321 19.1496 25.2528C19.1496 21.7513 21.9982 18.9027 25.4998 18.9027C29.0014 18.9027 31.85 21.7513 31.85 25.2527C31.8501 27.1321 31.023 28.9047 29.581 30.1163Z" fill="#FBF7F7"/>
<path d="M25.5 22.8265C25.103 22.8265 24.7283 22.923 24.3971 23.0927L23.2105 21.9062C22.9187 21.6145 22.4457 21.6145 22.1539 21.9062C21.8621 22.198 21.8621 22.671 22.1539 22.9628L23.3402 24.1492C23.1702 24.4805 23.0737 24.8554 23.0737 25.2528C23.0737 26.5907 24.1621 27.6791 25.5 27.6791C26.8379 27.6791 27.9263 26.5907 27.9263 25.2528C27.9263 23.9149 26.8379 22.8265 25.5 22.8265ZM25.5 26.185C24.9861 26.185 24.5678 25.7668 24.5678 25.2528C24.5678 24.7387 24.986 24.3206 25.5 24.3206C26.014 24.3206 26.4322 24.7387 26.4322 25.2528C26.4322 25.7668 26.0141 26.185 25.5 26.185Z" fill="#FBF7F7"/>
<path d="M27.954 47.6259L26.247 48.8197V40.8966C26.247 40.4839 25.9126 40.1495 25.5 40.1495C25.0873 40.1495 24.7529 40.4839 24.7529 40.8966V48.8197L23.0459 47.6259C22.7077 47.3895 22.242 47.4719 22.0055 47.8101C21.7691 48.1482 21.8515 48.6139 22.1896 48.8505L25.0718 50.8662C25.0729 50.8669 25.074 50.8674 25.0751 50.8682C25.3267 51.0426 25.6685 51.0457 25.9247 50.8682C25.9258 50.8675 25.927 50.867 25.928 50.8662L28.8102 48.8505C29.1484 48.614 29.2307 48.1482 28.9944 47.8101C28.758 47.4719 28.2922 47.3895 27.954 47.6259Z" fill="#FBF7F7"/>
<path d="M42.106 47.6259L40.399 48.8198V34.8495C40.399 34.4369 40.0646 34.1025 39.6519 34.1025C39.2392 34.1025 38.9048 34.4369 38.9048 34.8495V48.8198L37.1977 47.6259C36.8595 47.3895 36.3939 47.4721 36.1573 47.8101C35.921 48.1483 36.0033 48.614 36.3415 48.8505L39.2238 50.8662C39.2249 50.8669 39.226 50.8674 39.2271 50.8682C39.4797 51.0433 39.8217 51.0449 40.0766 50.8682C40.0777 50.8675 40.0788 50.867 40.0799 50.8662L42.9621 48.8505C43.3003 48.6141 43.3827 48.1482 43.1463 47.8101C42.9099 47.4719 42.4442 47.3895 42.106 47.6259Z" fill="#FBF7F7"/>
<path d="M13.8028 47.6259L12.0958 48.8198V34.8495C12.0958 34.4369 11.7614 34.1025 11.3487 34.1025C10.936 34.1025 10.6016 34.4369 10.6016 34.8495V48.8198L8.89452 47.6259C8.55645 47.3895 8.09067 47.472 7.8541 47.8101C7.61773 48.1482 7.70011 48.614 8.03828 48.8505L10.9205 50.8662C10.9216 50.8669 10.9227 50.8674 10.9238 50.8682C11.1807 51.0462 11.5225 51.0421 11.7733 50.8682C11.7744 50.8675 11.7756 50.867 11.7766 50.8662L14.6588 48.8505C14.997 48.6141 15.0794 48.1482 14.843 47.8101C14.6066 47.472 14.1407 47.3895 13.8028 47.6259Z" fill="#FBF7F7"/>
</g>
<defs>
<clipPath id="clip0">
<rect width="51" height="51" fill="white"/>
</clipPath>
</defs>
</svg>
