<svg width="50" height="50" viewBox="0 0 50 50" fill="none" xmlns="http://www.w3.org/2000/svg">
<path d="M22.9167 5.2083C22.9167 2.33662 20.5801 0 17.7083 0C14.8366 0 12.5 2.33662 12.5 5.2083V37.6373C11.1705 39.0004 10.4167 40.8233 10.4167 42.7083C10.4167 46.7285 13.6882 50 17.7084 50C21.7286 50 25 46.7285 25 42.7083C25 40.8233 24.2462 39.0004 22.9167 37.6373V5.2083ZM17.7083 47.9167C14.8367 47.9167 12.5 45.5801 12.5 42.7084C12.5 41.2334 13.1175 39.8642 14.2396 38.854C14.4583 38.6557 14.5834 38.3749 14.5834 38.0799V5.2083C14.5834 3.48506 15.9852 2.0833 17.7084 2.0833C19.4317 2.0833 20.8334 3.48506 20.8334 5.2083V38.0798C20.8334 38.3748 20.9585 38.6556 21.1773 38.8539C22.2994 39.8641 22.9168 41.2333 22.9168 42.7083C22.9167 45.5801 20.5801 47.9167 17.7083 47.9167Z" fill="white"/>
<path d="M18.75 39.7752V21.875C18.75 21.2992 18.284 20.8333 17.7083 20.8333C17.1325 20.8333 16.6666 21.2992 16.6666 21.875V39.7752C15.4567 40.2067 14.5833 41.3521 14.5833 42.7083C14.5833 44.4316 15.985 45.8333 17.7083 45.8333C19.4315 45.8333 20.8333 44.4316 20.8333 42.7083C20.8333 41.3521 19.9598 40.2067 18.75 39.7752ZM17.7083 43.75C17.1335 43.75 16.6666 43.2831 16.6666 42.7083C16.6666 42.1336 17.1334 41.6666 17.7083 41.6666C18.283 41.6666 18.75 42.1335 18.75 42.7083C18.75 43.2831 18.2831 43.75 17.7083 43.75Z" fill="white"/>
<path d="M9.37495 33.3333H3.12495C2.54917 33.3333 2.08325 33.7992 2.08325 34.375C2.08325 34.9508 2.54917 35.4167 3.12495 35.4167H9.37495C9.95073 35.4167 10.4166 34.9508 10.4166 34.375C10.4166 33.7992 9.95073 33.3333 9.37495 33.3333Z" fill="white"/>
<path d="M9.375 29.1667H7.2917C6.71592 29.1667 6.25 29.6326 6.25 30.2084C6.25 30.7841 6.71592 31.25 7.2917 31.25H9.375C9.95078 31.25 10.4167 30.7841 10.4167 30.2083C10.4167 29.6326 9.95078 29.1667 9.375 29.1667Z" fill="white"/>
<path d="M9.375 25H7.2917C6.71592 25 6.25 25.4659 6.25 26.0417C6.25 26.6175 6.71592 27.0834 7.2917 27.0834H9.375C9.95078 27.0834 10.4167 26.6175 10.4167 26.0417C10.4167 25.4659 9.95078 25 9.375 25Z" fill="white"/>
<path d="M3.12495 22.9167H9.37495C9.95073 22.9167 10.4166 22.4508 10.4166 21.875C10.4166 21.2992 9.95073 20.8333 9.37495 20.8333H3.12495C2.54917 20.8333 2.08325 21.2992 2.08325 21.875C2.08325 22.4508 2.54917 22.9167 3.12495 22.9167Z" fill="white"/>
<path d="M3.12495 10.4167H9.37495C9.95073 10.4167 10.4166 9.95079 10.4166 9.37501C10.4166 8.79923 9.95073 8.33331 9.37495 8.33331H3.12495C2.54917 8.33331 2.08325 8.79923 2.08325 9.37501C2.08325 9.95079 2.54917 10.4167 3.12495 10.4167Z" fill="white"/>
<path d="M9.375 16.6667H7.2917C6.71592 16.6667 6.25 17.1326 6.25 17.7084C6.25 18.2841 6.71592 18.75 7.2917 18.75H9.375C9.95078 18.75 10.4167 18.2841 10.4167 17.7083C10.4167 17.1326 9.95078 16.6667 9.375 16.6667Z" fill="white"/>
<path d="M9.375 12.5H7.2917C6.71592 12.5 6.25 12.9659 6.25 13.5417C6.25 14.1175 6.71592 14.5834 7.2917 14.5834H9.375C9.95078 14.5834 10.4167 14.1175 10.4167 13.5417C10.4167 12.9659 9.95078 12.5 9.375 12.5Z" fill="white"/>
<path d="M32.2917 16.6667H34.375C36.0982 16.6667 37.5 18.0684 37.5 19.7917C37.5 20.3675 37.9659 20.8334 38.5417 20.8334C39.1175 20.8334 39.5834 20.3675 39.5834 19.7917C39.5834 16.92 37.2468 14.5834 34.3751 14.5834H32.2918C29.4201 14.5834 27.0835 16.92 27.0835 19.7917V28.125C27.0835 30.9967 29.4201 33.3333 32.2918 33.3333H34.375C37.2467 33.3333 39.5833 30.9967 39.5833 28.125C39.5833 27.5492 39.1174 27.0833 38.5416 27.0833C37.9658 27.0833 37.5 27.5492 37.5 28.125C37.5 29.8482 36.0982 31.25 34.375 31.25H32.2917C30.5685 31.25 29.1667 29.8482 29.1667 28.125V19.7917C29.1667 18.0684 30.5685 16.6667 32.2917 16.6667Z" fill="white"/>
<path d="M44.7915 14.5833C43.0683 14.5833 41.6665 15.9851 41.6665 17.7083C41.6665 19.4316 43.0683 20.8333 44.7915 20.8333C46.5147 20.8333 47.9165 19.4316 47.9165 17.7083C47.9165 15.9852 46.5147 14.5833 44.7915 14.5833ZM44.7915 18.75C44.2168 18.75 43.7498 18.2831 43.7498 17.7083C43.7498 17.1336 44.2167 16.6666 44.7915 16.6666C45.3663 16.6666 45.8332 17.1335 45.8332 17.7083C45.8331 18.2831 45.3662 18.75 44.7915 18.75Z" fill="white"/>
</svg>
