<svg width="50" height="50" viewBox="0 0 50 50" fill="none" xmlns="http://www.w3.org/2000/svg">
<path d="M32.3049 28.3005L32.2471 28.221C31.8437 27.6555 31.3357 27.1729 30.7372 26.7856C30.273 26.4838 29.6372 26.5928 29.3172 27.0242C28.9955 27.4567 29.1105 28.0499 29.5735 28.349C29.9601 28.599 30.2882 28.9111 30.5521 29.2815L30.6105 29.3616C31.5593 30.6897 33.0803 31.5509 34.7823 31.7235C34.9914 31.7442 35.2004 31.7551 35.4083 31.7551C36.8901 31.7551 38.3171 31.2229 39.3979 30.2522L41.1239 28.7014C41.8204 28.0766 42.7365 27.7318 43.704 27.7318H48.9794C49.5428 27.7318 50 27.3058 50 26.7796C50 26.2534 49.5428 25.828 48.9794 25.828H43.7034C42.2052 25.828 40.7852 26.3613 39.7079 27.3303L37.982 28.8801C37.1862 29.5958 36.0978 29.9379 35.0013 29.8312C33.903 29.7195 32.9215 29.1633 32.3049 28.3005Z" fill="white"/>
<path d="M1.02004 27.7318H5.97835C6.97212 27.7318 7.90574 28.0924 8.60815 28.7482L10.0527 30.0953C11.1416 31.1112 12.5984 31.6701 14.12 31.6701C14.3097 31.6701 14.5007 31.6614 14.6928 31.644C16.417 31.4849 17.9573 30.6221 18.9183 29.2771C19.0888 29.0391 19.2903 28.8196 19.5185 28.6273C19.9366 28.2743 19.9681 27.6718 19.5898 27.2824C19.2114 26.8934 18.5662 26.864 18.1488 27.2165C17.7955 27.515 17.4837 27.8532 17.2204 28.2215C16.5991 29.0898 15.6048 29.6465 14.4919 29.75C13.3843 29.8502 12.2872 29.4885 11.496 28.7493L10.0509 27.4022C8.96315 26.3874 7.51688 25.8285 5.97835 25.8285H1.02004C0.456595 25.8285 0 26.2545 0 26.7807C0 27.3069 0.456595 27.7318 1.02004 27.7318Z" fill="white"/>
<path d="M48.9794 34.2712H43.7034C42.2064 34.2712 40.7869 34.8045 39.7073 35.7741L37.9826 37.3238C37.1861 38.0396 36.0978 38.3866 35.0007 38.2738C33.9018 38.1621 32.9209 37.6076 32.3072 36.7486L32.2465 36.6641C31.8407 36.0971 31.3327 35.6145 30.7354 35.2288C30.2718 34.9292 29.636 35.0371 29.316 35.4696C28.9949 35.9015 29.1105 36.4947 29.5747 36.7943C29.9595 37.0422 30.287 37.3538 30.5492 37.7209L30.6099 37.8053C31.5587 39.1339 33.0791 39.9951 34.78 40.1667C34.9896 40.1885 35.1992 40.1989 35.4071 40.1989C36.8895 40.1989 38.3165 39.6672 39.3979 38.6954L41.1233 37.1457C41.8198 36.5198 42.7365 36.175 43.7034 36.175H48.9794C49.5428 36.175 50 35.7496 50 35.2234C50 34.6972 49.5428 34.2712 48.9794 34.2712Z" fill="white"/>
<path d="M19.5909 35.7278C19.2149 35.3372 18.5686 35.3067 18.1499 35.6591C17.7973 35.9565 17.4843 36.2937 17.2204 36.6641C16.5991 37.5319 15.6048 38.0891 14.4919 38.1921C13.3773 38.289 12.2872 37.9301 11.496 37.1931L10.0509 35.8449C8.96315 34.8295 7.51688 34.2712 5.97835 34.2712H1.02004C0.456594 34.2712 0 34.6971 0 35.2233C0 35.7495 0.456594 36.175 1.02004 36.175H5.97835C6.97212 36.175 7.90574 36.5361 8.60815 37.1914L10.0533 38.5391C11.1422 39.5544 12.5984 40.1133 14.1194 40.1133C14.3097 40.1133 14.5007 40.1046 14.6928 40.0871C16.417 39.9275 17.9572 39.0653 18.9183 37.7203C19.0888 37.4812 19.2902 37.2639 19.5174 37.0721C19.9354 36.7197 19.9687 36.1183 19.5909 35.7278Z" fill="white"/>
<path d="M27.551 40.2299V16.1837H33.6736C34.237 16.1837 34.6936 15.7577 34.6936 15.2315C34.6936 14.7053 34.237 14.2793 33.6736 14.2793H27.551V11.4239H33.6736C34.237 11.4239 34.6936 10.9979 34.6936 10.4717C34.6936 9.94553 34.237 9.51956 33.6736 9.51956H27.551V6.66358H33.6736C34.237 6.66358 34.6936 6.23815 34.6936 5.71195C34.6936 5.18575 34.237 4.75978 33.6736 4.75978H27.551V2.94694C27.551 1.32204 26.1777 0 24.4897 0C22.8017 0 21.4285 1.32204 21.4285 2.94694V40.3731C19.8812 41.352 18.9429 42.9709 18.9429 44.7222C18.9429 47.6321 21.481 50 24.6007 50C27.7203 50 30.2585 47.6321 30.2585 44.7222C30.2585 42.8843 29.2145 41.182 27.551 40.2299ZM24.6007 48.0957C22.6067 48.0957 20.9835 46.5824 20.9835 44.7222C20.9835 43.4808 21.728 42.3434 22.9261 41.7518C23.2601 41.5873 23.4691 41.2627 23.4691 40.9108V2.94694C23.4691 2.37172 23.9275 1.9038 24.4897 1.9038C25.052 1.9038 25.5104 2.37172 25.5104 2.94694V40.7991C25.5104 41.1706 25.7422 41.5083 26.1042 41.6636C27.3881 42.2148 28.2172 43.4149 28.2172 44.7222C28.2172 46.5824 26.5952 48.0957 24.6007 48.0957Z" fill="white"/>
</svg>
